<svg version="1.1" xmlns="http://www.w3.org/2000/svg" style="display: block;" viewBox="0 0 2048 2048" width="512" height="512">
<path transform="translate(0,0)" fill="rgb(54,76,155)" d="M 554.709 1174.43 C 504.963 1131.34 520.65 1050.95 588.202 1036.67 C 612.489 1031.54 742.481 1033.36 771.168 1035.4 C 789.333 1036.7 799.45 1042.25 820.432 1042 C 831.557 1052.69 841.113 1057.59 856.05 1061.13 C 875.397 1062.55 900.961 1071.89 914.022 1071.24 C 923.23 1070.78 931.478 1065.19 940.223 1064.37 C 948.056 1056.61 954.679 1048.14 960.284 1038.66 L 1162.03 1038.63 C 1196.46 1038.64 1231.02 1039.39 1265.44 1038.66 L 1418.84 1038.66 C 1456.8 1038.63 1494.19 1030.14 1523.81 1059.54 C 1574.79 1110.15 1539.06 1197.21 1468.27 1196.6 L 1407.84 1196.01 L 1407.84 1314.36 C 1417.53 1315.59 1454.75 1313.91 1459.51 1320.02 C 1463.13 1330.81 1464.96 1386.29 1460.5 1395.72 C 1456.87 1403.39 1445.06 1403.03 1437.99 1402.85 L 787.531 1402.87 C 775.098 1402.87 710.268 1398.88 703.368 1405.54 C 679.92 1428.18 758.708 1420.71 762.658 1420.7 L 1379.89 1420.79 C 1398.99 1420.81 1418.97 1422.06 1437.99 1420.76 C 1470.31 1423.41 1468.34 1461.38 1459.08 1471.25 C 1452.82 1477.92 1310.93 1473.81 1291.83 1473.81 L 772.138 1473.82 C 691.588 1473.83 630.709 1486.72 630.866 1383.91 L 630.993 1340.01 C 554.753 1348.87 480.891 1320.63 505.276 1227.16 C 512.465 1199.61 531.477 1187.91 554.709 1174.43 z"/>
<path transform="translate(0,0)" fill="rgb(253,81,83)" d="M 656.061 1340.01 L 1358.44 1340.01 C 1384.56 1340 1411.99 1341.89 1437.99 1340.01 L 1437.99 1402.85 L 787.531 1402.87 C 775.098 1402.87 710.268 1398.88 703.368 1405.54 C 679.92 1428.18 758.708 1420.71 762.658 1420.7 L 1379.89 1420.79 C 1398.99 1420.81 1418.97 1422.06 1437.99 1420.76 C 1439.74 1430.68 1439.47 1438.7 1437.99 1448.63 L 761.86 1448.65 C 726.632 1448.65 671.586 1460.77 658.339 1416.14 C 653.406 1399.52 656.001 1358.66 656.061 1340.01 z"/>
<path transform="translate(0,0)" fill="rgb(218,230,240)" d="M 708.22 1369.23 L 1407.84 1369.23 C 1407.82 1374.89 1408.63 1382.56 1406.86 1387.84 L 1404.25 1388.27 L 768.877 1388.3 C 754.711 1388.32 718.738 1390.25 706.567 1386.82 C 697.659 1384.3 702.047 1372.43 708.22 1369.23 z"/>
<path transform="translate(0,0)" fill="rgb(124,219,202)" d="M 856.05 1061.13 C 875.397 1062.55 900.961 1071.89 914.022 1071.24 C 923.23 1070.78 931.478 1065.19 940.223 1064.37 C 968.814 1062.33 998.308 1064.37 1027.04 1064.38 L 1378.32 1064.34 C 1424.66 1064.31 1518.55 1047.83 1522.13 1114.31 C 1510.65 1116.98 1501.74 1125.84 1490.15 1127.69 C 1468.01 1131.22 1443.72 1129.77 1421.34 1129.77 L 683.041 1129.72 C 673.277 1092.96 705.904 1067.58 738.792 1063.51 C 752.951 1061.75 786.046 1064.38 802.235 1064.37 C 814.243 1064.46 846.933 1066.26 856.05 1061.13 z"/>
<path transform="translate(0,0)" fill="rgb(85,203,165)" d="M 1522.13 1114.31 C 1519.6 1183.51 1447.84 1169.43 1400.26 1169.42 L 728.39 1169.41 C 710.497 1166.81 689.775 1146.59 683.041 1129.72 L 1421.34 1129.77 C 1443.72 1129.77 1468.01 1131.22 1490.15 1127.69 C 1501.74 1125.84 1510.65 1116.98 1522.13 1114.31 z"/>
<path transform="translate(0,0)" fill="rgb(80,185,133)" d="M 728.39 1169.41 L 648.03 1169.46 C 617.744 1169.47 582.94 1174.25 562.494 1146.6 C 538.758 1114.49 554.444 1067.83 595.944 1061.9 C 606.388 1060.41 617.283 1061.04 627.827 1061.04 L 735.047 1061.16 C 757.675 1061.02 779.872 1060.3 802.235 1064.37 C 786.046 1064.38 752.951 1061.75 738.792 1063.51 C 705.904 1067.58 673.277 1092.96 683.041 1129.72 C 689.775 1146.59 710.497 1166.81 728.39 1169.41 z"/>
<path transform="translate(0,0)" fill="rgb(252,208,22)" d="M 1379.66 1314.36 L 668.833 1314.31 C 622.732 1314.39 531.207 1330.82 528.863 1261.68 C 526.044 1178.55 607.98 1196.01 664.169 1196 L 1379.66 1196.01 C 1379.43 1213.83 1380.01 1231.65 1379.66 1249.47 C 1379.7 1259.78 1380.48 1270.83 1379.66 1281.06 C 1379.16 1292.19 1379.39 1303.23 1379.66 1314.36 z"/>
<path transform="translate(0,0)" fill="rgb(218,230,240)" d="M 1370.67 1281.06 C 1304.21 1279.51 1237.33 1281.06 1170.83 1281.06 L 631.965 1281.09 C 621.714 1281.04 611.303 1282.65 601.13 1282.3 C 592.056 1281.98 584.239 1270.69 591.81 1263.38 C 599.537 1255.93 648.203 1259.8 659.586 1259.8 L 1350.7 1259.85 C 1358.52 1259.85 1367.06 1258.78 1374.73 1259.79 L 1374.58 1260.8 C 1373.71 1267.02 1374.79 1273.37 1373.31 1279.44 L 1370.67 1281.06 z"/>
<path transform="translate(0,0)" fill="rgb(255,205,83)" d="M 1374.73 1259.79 L 1377.61 1259.88 C 1379.67 1257.43 1379.32 1252.73 1379.66 1249.47 C 1379.7 1259.78 1380.48 1270.83 1379.66 1281.06 C 1376.73 1279.92 1373.7 1280.67 1370.67 1281.06 L 1373.31 1279.44 C 1374.79 1273.37 1373.71 1267.02 1374.58 1260.8 L 1374.73 1259.79 z"/>
<path transform="translate(0,0)" fill="rgb(218,230,240)" d="M 593.908 1226.67 C 610.62 1226.01 627.534 1226.65 644.271 1226.65 L 1338.44 1226.64 C 1350.49 1226.61 1362.71 1225.83 1374.73 1226.67 C 1374 1233.57 1374.22 1240.04 1374.73 1246.96 C 1356.05 1247.91 1336.88 1247 1318.14 1246.99 L 674.616 1246.96 C 653.843 1246.97 610.289 1249.06 592.554 1245.63 L 591.244 1243.63 C 590.405 1237.57 591.648 1232.29 593.908 1226.67 z"/>
<path transform="translate(0,0)" fill="rgb(54,76,155)" d="M 669.302 414.008 C 685.016 416.203 707.771 433.642 722.113 441.581 L 944.124 564.896 C 1000.19 595.973 994.363 590.53 1026.42 647.797 L 1027.34 649.421 L 1042.58 649.421 C 1052.86 633.95 1054.37 618.993 1059.65 601.682 C 1081.7 529.452 1168.02 501.187 1226.94 548.611 C 1251.16 568.102 1256.15 563.101 1286.37 566.576 C 1306.89 568.935 1418.51 574.071 1419.47 592.175 C 1420.26 607.174 1396.43 605.475 1386.56 606.514 C 1338.64 611.556 1290.94 622.086 1243 625.208 C 1200.45 673.366 1217 659.658 1212.99 709.524 C 1208.39 766.588 1186.39 817.744 1142.23 855.5 C 1097.56 897.096 1034.13 910.903 974.708 907.874 C 961.355 939.202 944.296 1001.91 926.931 1027.62 C 912.655 1048.77 895.894 1036.77 879.506 1024.83 C 858.811 1039.02 841.312 1018.29 827.327 1004.47 C 803.453 1004.4 793.08 1020.52 768.256 986.996 C 755.297 987.246 733.645 979.889 744.632 962.814 C 748.918 956.153 826.192 901.76 837.825 893.633 C 875.866 867.058 888.341 841.022 915.61 804.627 C 858.25 794.17 763.103 784.177 758.675 708.998 C 725.37 700.747 697.597 677.805 690.545 643.183 C 683.433 608.267 700.829 635.127 673.855 604.242 C 655.017 582.672 646.884 557.022 656.061 528.853 C 627.898 496.054 633.523 435.461 669.302 414.008 z"/>
<path transform="translate(0,0)" fill="rgb(14,136,254)" d="M 675.143 445.214 C 700.185 456.854 724.288 471.476 748.492 484.808 L 926.53 584.342 C 976.691 611.884 1005.4 628.901 1009.62 693.191 C 1009.99 706.763 1010.47 721.415 1009.62 734.939 C 1001.72 747.349 996.692 763.601 986.608 774.185 C 988.311 781.179 990.475 787.999 992.651 794.858 C 986.965 796.349 869.174 770.588 854.696 766.587 C 824.22 758.166 796.358 751.091 784.907 718.469 C 819.98 721.548 874.767 733.499 911.021 739.682 C 875.364 725.373 832.912 711.733 795.775 698.007 C 757.495 683.859 727.986 678.683 714.385 635.081 C 724.853 638.505 864.979 680.089 869.248 678.53 C 815.681 656.821 759.665 636.917 711.571 604.087 C 701.731 597.37 665.851 564.127 677.271 550.59 C 712.637 556.636 779.547 600.313 812.118 596.33 L 728.148 547.473 C 686.693 523.832 632.952 502.206 675.143 445.214 z"/>
<path transform="translate(0,0)" fill="rgb(252,208,22)" d="M 675.143 445.214 C 700.185 456.854 724.288 471.476 748.492 484.808 L 926.53 584.342 C 976.691 611.884 1005.4 628.901 1009.62 693.191 C 1009.99 706.763 1010.47 721.415 1009.62 734.939 C 1001.72 747.349 996.692 763.601 986.608 774.185 C 975.655 741.245 970.986 704.326 947.011 677.486 C 926.126 654.105 844.122 612.546 812.118 596.33 L 728.148 547.473 C 686.693 523.832 632.952 502.206 675.143 445.214 z"/>
<path transform="translate(0,0)" fill="rgb(253,81,83)" d="M 1009.62 693.191 C 1009.28 670.181 1049.92 675.458 1062.56 664.755 C 1088.3 642.944 1071.48 566.933 1146.96 551.434 C 1196.44 541.274 1205.72 568.775 1235.36 587.126 C 1236.36 592.106 1236.71 596.153 1235.36 601.1 C 1224.44 605.598 1197.69 644.291 1192.89 655.678 C 1182.58 680.191 1194.82 713.234 1185.21 734.939 C 1180.53 774.354 1149.26 819.603 1118.72 843.532 C 1062.8 887.341 963.056 896.022 895.406 876.281 C 925.691 806.623 976.563 815.572 993.074 797.737 L 992.651 794.858 C 990.475 787.999 988.311 781.179 986.608 774.185 C 996.692 763.601 1001.72 747.349 1009.62 734.939 C 1010.47 721.415 1009.99 706.763 1009.62 693.191 z"/>
<path transform="translate(0,0)" fill="rgb(14,136,254)" d="M 1009.62 693.191 C 1009.28 670.181 1049.92 675.458 1062.56 664.755 C 1088.3 642.944 1071.48 566.933 1146.96 551.434 C 1196.44 541.274 1205.72 568.775 1235.36 587.126 C 1236.36 592.106 1236.71 596.153 1235.36 601.1 C 1224.44 605.598 1197.69 644.291 1192.89 655.678 C 1182.58 680.191 1194.82 713.234 1185.21 734.939 C 1128.09 733.986 1065.72 738.038 1009.62 734.939 C 1010.47 721.415 1009.99 706.763 1009.62 693.191 z"/>
<path transform="translate(0,0)" fill="rgb(14,136,254)" d="M 879.506 896.79 L 880.247 897.051 C 879.338 902.144 820.451 972.094 812.118 986.996 C 804.16 985.28 797.277 983.285 790.24 979.049 C 786.211 975.992 782.861 972.321 779.381 968.674 L 831.782 929.024 C 847.171 917.482 862.101 905.188 879.506 896.79 z"/>
<path transform="translate(0,0)" fill="rgb(14,136,254)" d="M 943.592 907.874 C 948.325 913.547 913.304 1001.54 907.747 1014.77 C 903.589 1013.38 899.488 1011.53 895.406 1009.91 C 892.512 1008.07 891.072 1007.16 890.086 1003.85 C 892.704 992.173 931.617 918.748 943.592 907.874 z"/>
<path transform="translate(0,0)" fill="rgb(14,136,254)" d="M 907.747 907.874 L 910.091 908.254 L 910.698 909.514 C 895.856 941.994 875.915 972.58 859.631 1004.47 L 856.05 999.289 C 851.282 995.554 846.32 991.835 842.619 986.996 C 863.572 962.981 886.195 926.518 907.747 907.874 z"/>
<path transform="translate(0,0)" fill="rgb(252,208,22)" d="M 1235.36 587.126 C 1261.64 587.094 1289.6 588.89 1314.86 596.33 C 1305.29 597.021 1240.11 603.809 1236.49 602.871 L 1235.36 601.1 C 1236.71 596.153 1236.36 592.106 1235.36 587.126 z"/>
<path transform="translate(0,0)" fill="rgb(218,230,240)" d="M 1253.81 658.015 C 1262.73 653.361 1279.82 648.769 1288.74 653.477 C 1352.53 750.085 1353.39 884.985 1298.83 985.784 C 1288.91 1004.11 1276.94 1021.3 1265.44 1038.66 C 1231.02 1039.39 1196.46 1038.64 1162.03 1038.63 L 960.284 1038.66 C 971.747 1005.92 983.462 973.003 997.537 941.288 C 1040.36 936.81 1076.81 928.902 1115.46 909.342 C 1182.04 875.646 1235.05 807.57 1245.5 732.896 C 1248.71 709.956 1240.95 679.548 1253.07 659.229 L 1253.81 658.015 z"/>
<path transform="translate(0,0)" fill="rgb(218,230,240)" d="M 743.845 1515.98 C 769.953 1514.04 797.137 1515.96 823.402 1515.97 L 1211.27 1516 C 1246.87 1515.99 1283 1514.6 1318.54 1515.98 C 1298.76 1529.61 1278.96 1543.27 1258.38 1555.68 C 1119.42 1633.95 955.993 1634.14 813.943 1559.66 C 789.505 1546.85 767.29 1530.45 743.845 1515.98 z"/>
<path transform="translate(0,0)" fill="rgb(218,230,240)" d="M 724.194 731.666 C 730.955 738.298 735.273 751.48 740.229 759.815 C 765.666 802.592 814.358 816.664 859.631 827.819 C 842.663 852.538 822.69 864.309 798.386 880.818 C 775.801 896.296 751.899 911.813 731.517 930.091 C 710.388 883.599 700.493 771.821 724.194 731.666 z"/>
<path transform="translate(0,0)" fill="rgb(218,230,240)" d="M 1014.49 474.513 C 1056.08 469.754 1103.35 480.748 1142.23 494.829 C 1090.81 503.527 1051 539.647 1029.72 586.353 L 1027.34 582.916 C 1000.83 553.354 935.812 525.37 899.187 502.239 C 935.554 484.441 973.907 474.679 1014.49 474.513 z"/>
</svg>